<svg width="20" height="21" viewBox="0 0 20 21" fill="none" xmlns="http://www.w3.org/2000/svg">
<path d="M3.21255 1.41504H16.807C18.2283 1.41504 19.3848 2.62905 19.3848 4.12171V12.8572C19.3848 14.3465 18.2334 15.5586 16.8161 15.5639V19.5279L11.3906 15.5639H3.21255C1.79119 15.5639 0.634769 14.3496 0.634769 12.8572V4.12171C0.634769 2.62905 1.79119 1.41504 3.21255 1.41504ZM1.7334 12.8572C1.7334 13.7135 2.39693 14.4103 3.21255 14.4103H11.7353L15.7175 17.3199V14.4103H16.807C17.6226 14.4103 18.2861 13.7135 18.2861 12.8572V4.12171C18.2861 3.26519 17.6226 2.5686 16.807 2.5686H3.21255C2.39693 2.5686 1.7334 3.26519 1.7334 4.12171V12.8572Z" fill="#6E707C"/>
<path d="M14.3665 5.49121H5.65315V6.64477H14.3665V5.49121Z" fill="#6E707C"/>
<path d="M14.3665 7.95215H5.65315V9.10571H14.3665V7.95215Z" fill="#6E707C"/>
<path d="M14.3665 10.4131H5.65315V11.5667H14.3665V10.4131Z" fill="#6E707C"/>
</svg>
