<svg width="17" height="17" viewBox="0 0 17 17" fill="none" xmlns="http://www.w3.org/2000/svg">
<mask id="path-1-inside-1" fill="white">
<rect y="0.0498047" width="16.8" height="16.8" rx="0.5"/>
</mask>
<rect y="0.0498047" width="16.8" height="16.8" rx="0.5" stroke="#6E707C" stroke-width="2" mask="url(#path-1-inside-1)"/>
<path d="M12.7327 9.6502H6.4675C6.20929 9.6502 6 9.3816 6 9.0502C6 8.7188 6.20929 8.4502 6.4675 8.4502H12.7325C12.9907 8.4502 13.2 8.7188 13.2 9.0502C13.2002 9.3816 12.9909 9.6502 12.7327 9.6502Z" fill="#6E707C"/>
<path d="M12.7327 12.0496H6.4675C6.20929 12.0496 6 11.781 6 11.4496C6 11.1182 6.20929 10.8496 6.4675 10.8496H12.7325C12.9907 10.8496 13.2 11.1182 13.2 11.4496C13.2002 11.781 12.9909 12.0496 12.7327 12.0496Z" fill="#6E707C"/>
<path d="M12.7327 7.2498H6.4675C6.20929 7.2498 6 6.9812 6 6.6498C6 6.3184 6.20929 6.0498 6.4675 6.0498H12.7325C12.9907 6.0498 13.2 6.3184 13.2 6.6498C13.2 6.9812 12.9909 7.2498 12.7327 7.2498Z" fill="#6E707C"/>
<path d="M4.2001 7.2498C4.53147 7.2498 4.8001 6.98118 4.8001 6.6498C4.8001 6.31843 4.53147 6.0498 4.2001 6.0498C3.86873 6.0498 3.6001 6.31843 3.6001 6.6498C3.6001 6.98118 3.86873 7.2498 4.2001 7.2498Z" fill="#6E707C"/>
<path d="M4.2001 9.6502C4.53147 9.6502 4.8001 9.38157 4.8001 9.0502C4.8001 8.71882 4.53147 8.4502 4.2001 8.4502C3.86873 8.4502 3.6001 8.71882 3.6001 9.0502C3.6001 9.38157 3.86873 9.6502 4.2001 9.6502Z" fill="#6E707C"/>
<path d="M4.2001 12.0496C4.53147 12.0496 4.8001 11.781 4.8001 11.4496C4.8001 11.1182 4.53147 10.8496 4.2001 10.8496C3.86873 10.8496 3.6001 11.1182 3.6001 11.4496C3.6001 11.781 3.86873 12.0496 4.2001 12.0496Z" fill="#6E707C"/>
<path d="M12.7327 4.84941H6.4675C6.20929 4.84941 6 4.58081 6 4.24941C6 3.91801 6.20929 3.64941 6.4675 3.64941H12.7325C12.9907 3.64941 13.2 3.91801 13.2 4.24941C13.2002 4.58081 12.9909 4.84941 12.7327 4.84941Z" fill="#6E707C"/>
<path d="M4.2001 4.84941C4.53147 4.84941 4.8001 4.58078 4.8001 4.24941C4.8001 3.91804 4.53147 3.64941 4.2001 3.64941C3.86873 3.64941 3.6001 3.91804 3.6001 4.24941C3.6001 4.58078 3.86873 4.84941 4.2001 4.84941Z" fill="#6E707C"/>
</svg>
