<svg width="18" height="18" viewBox="0 0 18 18" fill="none" xmlns="http://www.w3.org/2000/svg">
<path d="M8.925 0.0498047C4.00361 0.0498047 0 4.05341 0 8.9748C0 13.8962 4.00361 17.8998 8.925 17.8998C13.8464 17.8998 17.85 13.8962 17.85 8.9748C17.85 4.05341 13.8464 0.0498047 8.925 0.0498047ZM8.925 16.4123C4.82396 16.4123 1.4875 13.0758 1.4875 8.9748C1.4875 4.87377 4.82396 1.5373 8.925 1.5373C13.026 1.5373 16.3625 4.87377 16.3625 8.9748C16.3625 13.0758 13.026 16.4123 8.925 16.4123Z" fill="#6E707C"/>
<path d="M12.3593 4.56838C12.0812 4.68367 11.9 4.95476 11.9 5.25561V5.62748C10.7179 5.64162 9.60558 6.22137 8.91724 7.18453L8.55317 7.69474L8.18911 7.1849C7.49221 6.20947 6.36097 5.62748 5.16279 5.62748H4.09067C3.68012 5.62748 3.34692 5.96068 3.34692 6.37123C3.34692 6.78178 3.68012 7.11498 4.09067 7.11498H5.16279C5.88162 7.11498 6.5603 7.46417 6.97828 8.04951L7.63911 8.97436L6.97828 9.89921C6.56067 10.4845 5.88162 10.8337 5.16279 10.8337H4.09067C3.68012 10.8337 3.34692 11.1669 3.34692 11.5775C3.34692 11.988 3.68012 12.3212 4.09067 12.3212H5.16279C6.36097 12.3212 7.49221 11.7392 8.18874 10.7638L8.55317 10.254L8.91724 10.7638C9.60558 11.7273 10.7179 12.3071 11.9 12.3212V12.6931C11.9 12.994 12.0812 13.2651 12.3593 13.3803C12.4512 13.4183 12.5479 13.4369 12.6438 13.4369C12.8375 13.4369 13.0276 13.3614 13.17 13.2189L14.2815 12.1074C14.2964 12.0929 14.3109 12.0773 14.3243 12.0617C14.4214 11.9486 14.4794 11.8133 14.4972 11.6742C14.5035 11.6247 14.505 11.5745 14.5017 11.5254C14.4898 11.3547 14.4188 11.187 14.2893 11.0557C14.1599 10.9245 14.289 11.0554 14.289 11.0554C14.2886 11.0554 14.2882 11.055 14.2882 11.0546C14.2875 11.0546 14.2875 11.0539 14.2875 11.0539C14.2875 11.0535 14.2871 11.0535 14.2867 11.0531C14.2864 11.0531 14.2864 11.0528 14.286 11.0524L13.1704 9.93677C12.9577 9.72406 12.6375 9.66047 12.3601 9.77538C12.0812 9.88991 11.9 10.161 11.9 10.4619V10.8334C11.1972 10.8196 10.5371 10.4726 10.1277 9.89921L9.46724 8.97436L10.1281 8.04951C10.5375 7.47607 11.1976 7.12912 11.9004 7.11536V7.48686C11.9004 7.78771 12.0815 8.0588 12.3597 8.17408C12.6367 8.28862 12.9573 8.2254 13.17 8.01269L14.2815 6.90116C14.2964 6.88665 14.3109 6.87103 14.3243 6.85542C14.4214 6.74237 14.4794 6.607 14.4972 6.46755C14.5035 6.41809 14.505 6.36826 14.5017 6.3188C14.4898 6.14811 14.4188 5.98039 14.2893 5.84875L14.289 5.84838C14.2886 5.84838 14.289 5.84801 14.2882 5.84763C14.2879 5.84763 14.2875 5.84726 14.2875 5.84689C14.2875 5.84652 14.2871 5.84615 14.2867 5.84615C14.2864 5.84577 14.2864 5.84578 14.286 5.8454L13.1704 4.72978C12.9569 4.51707 12.6367 4.4531 12.3593 4.56838Z" fill="#6E707C"/>
</svg>
