<svg width="16" height="17" viewBox="0 0 16 17" fill="none" xmlns="http://www.w3.org/2000/svg">
<path d="M7.97359 9.54053C10.3381 9.54053 12.256 7.40087 12.256 4.76295C12.256 2.12503 10.3381 0 7.97359 0C5.60907 0 3.69116 2.13967 3.69116 4.76295C3.69116 7.38623 5.60904 9.54053 7.97359 9.54053ZM7.97359 1.2457C9.70757 1.2457 11.1263 2.82845 11.1263 4.76295C11.1263 6.69745 9.70757 8.28017 7.97359 8.28017C6.23961 8.28017 4.82087 6.69742 4.82087 4.76292C4.82087 2.82841 6.23958 1.2457 7.97359 1.2457Z" fill="#6E707C"/>
<path d="M0.564855 17.0001H15.4351C15.7504 17.0001 16 16.7217 16 16.37C16 13.0725 13.5961 10.376 10.6273 10.376H5.37275C2.41708 10.376 0 13.0579 0 16.37C0 16.7217 0.249586 17.0001 0.564855 17.0001ZM5.37275 11.6363H10.6273C12.7816 11.6363 14.555 13.4243 14.8309 15.7398H1.16912C1.44498 13.4389 3.2184 11.6363 5.37275 11.6363Z" fill="#6E707C"/>
</svg>
