<svg width="17" height="17" viewBox="0 0 17 17" fill="none" xmlns="http://www.w3.org/2000/svg">
<path d="M16.3359 0H0.664062C0.297272 0 0 0.297272 0 0.664062V16.3359C0 16.7027 0.297272 17 0.664062 17H16.3359C16.7027 17 17 16.7027 17 16.3359V0.664062C17 0.297272 16.7027 0 16.3359 0ZM15.6719 15.6719H1.32812V1.32812H15.6719V15.6719ZM2.71799 4.55505C2.45859 4.29578 2.45859 3.8753 2.71799 3.6159C2.97726 3.35663 3.39774 3.35663 3.65701 3.6159L4.08697 4.04585L5.50705 2.6259C5.76632 2.3665 6.18681 2.3665 6.44608 2.6259C6.70547 2.8853 6.70547 3.30566 6.44608 3.56506L4.55661 5.45452C4.29721 5.71392 3.87672 5.71379 3.61745 5.45452L2.71799 4.55505ZM7.83594 4.04028C7.83594 3.67348 8.13321 3.37621 8.5 3.37621H13.8125C14.1793 3.37621 14.4766 3.67348 14.4766 4.04028C14.4766 4.40694 14.1793 4.70434 13.8125 4.70434H8.5C8.13321 4.70434 7.83594 4.40694 7.83594 4.04028ZM2.71799 13.4746C2.45859 13.2152 2.45859 12.7947 2.71799 12.5355C2.97726 12.2762 3.39774 12.2761 3.65701 12.5355L4.08697 12.9654L5.50705 11.5455C5.76632 11.2861 6.18681 11.2861 6.44608 11.5455C6.70547 11.8047 6.70547 12.2252 6.44608 12.4846L4.55661 14.3741C4.29721 14.6335 3.87672 14.6334 3.61745 14.3741L2.71799 13.4746ZM7.83594 12.9597C7.83594 12.5931 8.13321 12.2957 8.5 12.2957H13.8125C14.1793 12.2957 14.4766 12.5931 14.4766 12.9597C14.4766 13.3265 14.1793 13.6238 13.8125 13.6238H8.5C8.13321 13.6238 7.83594 13.3265 7.83594 12.9597ZM2.71799 9.01491C2.45859 8.75551 2.45859 8.33502 2.71799 8.07575C2.97726 7.81635 3.39774 7.81635 3.65701 8.07575L4.08697 8.50571L5.50705 7.08562C5.76632 6.82635 6.18681 6.82635 6.44608 7.08562C6.70547 7.34502 6.70547 7.76551 6.44608 8.02478L4.55661 9.91438C4.29721 10.1736 3.87672 10.1736 3.61745 9.91438L2.71799 9.01491ZM7.83594 8.5C7.83594 8.13321 8.13321 7.83594 8.5 7.83594H13.8125C14.1793 7.83594 14.4766 8.13321 14.4766 8.5C14.4766 8.86679 14.1793 9.16406 13.8125 9.16406H8.5C8.13321 9.16406 7.83594 8.86679 7.83594 8.5Z" fill="#6E707C"/>
</svg>
